# xmcd
#
# Track frame offsets:
#	150
#	32877
#	75027
#	96173
#	118893
#	133206
#	154097
#	179177
#	204050
#	216706
#	245700
#	272320
#	300412
#	319604
#
# Disc length: 4540 seconds
#
# Revision: 2
# Processed by: cddbd v1.5.2PL0 Copyright (c) Steve Scherf et al.
# Submitted via: audiograbber 1.83.01
#
DISCID=c211ba0e
DTITLE=John Mayall - So Many Roads - An Anthology 1964-1974 CD3
DYEAR=1900
DGENRE=Blues
TTITLE0=The Laws Must Change
TTITLE1=California
TTITLE2=Room To Move
TTITLE3=Sleeping By Her Side
TTITLE4=Don't Wate My Time
TTITLE5=Something New
TTITLE6=Waiting For The Right Time
TTITLE7=Counting The Days
TTITLE8=Off The Road
TTITLE9=Crying
TTITLE10=Nature's Disappearing
TTITLE11=Accidental Suicide
TTITLE12=Prisons On The Road
TTITLE13=Unanswered Questions
EXTD=
EXTT0=
EXTT1=
EXTT2=
EXTT3=
EXTT4=
EXTT5=
EXTT6=
EXTT7=
EXTT8=
EXTT9=
EXTT10=
EXTT11=
EXTT12=
EXTT13=
PLAYORDER=
